<?xml version="1.0" encoding="UTF-8"?>
<svg fill="currentColor" width="32" height="32" version="1.1" viewBox="0 0 8.46667 8.46667" xmlns="http://www.w3.org/2000/svg"><g transform="translate(0 -288.533)"><path transform="matrix(.264583 0 0 .264583 0 288.533)" d="m23.0039 3.875-1.31445 2.27344a11 11 0 013.31055 7.85156 11 11 0 01-11 11 11 11 0 01-7.85938-3.30664l-2.26172 1.30859c2.93591 5.08516 8.77013 7.80476 14.5527 6.78516 5.78263-1.01964 10.3378-5.57482 11.3574-11.3574 1.01965-5.7826-1.7-11.6188-6.78516-14.5547z" color-rendering="auto" dominant-baseline="auto" image-rendering="auto" shape-rendering="auto" style="font-feature-settings:normal;font-variant-alternates:normal;font-variant-caps:normal;font-variant-ligatures:normal;font-variant-numeric:normal;font-variant-position:normal;isolation:auto;mix-blend-mode:normal;paint-order:stroke fill markers;shape-padding:0;text-decoration-line:none;text-decoration-style:solid;text-indent:0;text-orientation:mixed;text-transform:none;white-space:normal"/><circle cx="2.11667" cy="290.65" r=".529167" style="paint-order:stroke fill markers"/><circle cx="1.5875" cy="292.237" r=".529167" style="paint-order:stroke fill markers"/><circle cx="3.70417" cy="290.121" r=".529167" style="paint-order:stroke fill markers"/></g></svg>
