<?xml version="1.0" encoding="UTF-8"?>
<svg width="32" height="32" fill="currentColor" version="1.1" viewBox="0 0 8.46667 8.46667" xmlns="http://www.w3.org/2000/svg"><path d="m4.23242.5295c-2.03949 0-3.70313 1.66559-3.70313 3.70508 0 2.03948 1.66364 3.70312 3.70313 3.70312 2.03949 0 3.70508-1.66364 3.70508-3.70312 0-2.03949-1.66559-3.70508-3.70508-3.70508zm0 1.05859c1.46752 0 2.64648 1.17897 2.64648 2.64649s-1.17896 2.64453-2.64648 2.64453c-1.46752 0-2.64453-1.17701-2.64453-2.64453s1.17701-2.64649 2.64453-2.64649z" color-rendering="auto" dominant-baseline="auto" image-rendering="auto" shape-rendering="auto" style="font-feature-settings:normal;font-variant-alternates:normal;font-variant-caps:normal;font-variant-ligatures:normal;font-variant-numeric:normal;font-variant-position:normal;isolation:auto;mix-blend-mode:normal;paint-order:stroke fill markers;shape-padding:0;text-decoration-color:#000000;text-decoration-line:none;text-decoration-style:solid;text-indent:0;text-orientation:mixed;text-transform:none;white-space:normal"/><path d="m4.23333 2.64583a1.5875 1.5875 0 00-1.495 1.05937h2.99a1.5875 1.5875 0 00-1.495-1.05937zm-1.495 2.11563a1.5875 1.5875 0 001.495 1.05937 1.5875 1.5875 0 001.495-1.05937h-2.99z" style="paint-order:stroke fill markers"/></svg>
