<?xml version="1.0" encoding="UTF-8"?>
<svg fill="currentColor" width="32" height="32" version="1.1" viewBox="0 0 8.46667 8.46667" xmlns="http://www.w3.org/2000/svg"><path d="m6.87891 4.23458c1e-7.46447-.121282.92002-.353516 1.32226l.916016.5293c.325095-.56308.496094-1.20137.496094-1.85156z" color-rendering="auto" dominant-baseline="auto" image-rendering="auto" shape-rendering="auto" solid-style="font-feature-settings:normal;font-variant-alternates:normal;font-variant-caps:normal;font-variant-ligatures:normal;font-variant-numeric:normal;font-variant-position:normal;isolation:auto;mix-blend-mode:normal;paint-order:stroke fill markers;shape-padding:0;text-decoration-line:none;text-decoration-style:solid;text-indent:0;text-orientation:mixed;text-transform:none;white-space:normal"/><circle cx="4.23333" cy="4.234" r="2.11093" style="paint-order:stroke fill markers"/><g shape-rendering="auto"><path d="m5.55695 6.52551c-.402234.23223-.858376.35329-1.32285.35329l-.0003772 1.05794c.650186 0 1.28846-.17106 1.85154-.49615z" color-rendering="auto" dominant-baseline="auto" image-rendering="auto" solid-style="font-feature-settings:normal;font-variant-alternates:normal;font-variant-caps:normal;font-variant-ligatures:normal;font-variant-numeric:normal;font-variant-position:normal;isolation:auto;mix-blend-mode:normal;paint-order:stroke fill markers;shape-padding:0;text-decoration-line:none;text-decoration-style:solid;text-indent:0;text-orientation:mixed;text-transform:none;white-space:normal"/><path d="m2.91165 6.52543c-.402243-.23223-.737813-.56603-.970048-.96827l-.916389.52865c.325097.56308.794061 1.03129 1.35714 1.35639z" color-rendering="auto" dominant-baseline="auto" image-rendering="auto" solid-style="font-feature-settings:normal;font-variant-alternates:normal;font-variant-caps:normal;font-variant-ligatures:normal;font-variant-numeric:normal;font-variant-position:normal;isolation:auto;mix-blend-mode:normal;paint-order:stroke fill markers;shape-padding:0;text-decoration-line:none;text-decoration-style:solid;text-indent:0;text-orientation:mixed;text-transform:none;white-space:normal"/><path d="m1.58789 4.23458c-1e-7-.46447.121282-.92198.353516-1.32422l-.916016-.5293c-.325095.56308-.496094 1.20333-.496094 1.85352z" color-rendering="auto" dominant-baseline="auto" image-rendering="auto" solid-style="font-feature-settings:normal;font-variant-alternates:normal;font-variant-caps:normal;font-variant-ligatures:normal;font-variant-numeric:normal;font-variant-position:normal;isolation:auto;mix-blend-mode:normal;paint-order:stroke fill markers;shape-padding:0;text-decoration-line:none;text-decoration-style:solid;text-indent:0;text-orientation:mixed;text-transform:none;white-space:normal"/><path d="m2.91046 1.94167c.402243-.23224.858389-.35329 1.32285-.35329l-.0005978-1.05964c-.650195 1e-5-1.28847.17106-1.85155.49616z" color-rendering="auto" dominant-baseline="auto" image-rendering="auto" solid-style="font-feature-settings:normal;font-variant-alternates:normal;font-variant-caps:normal;font-variant-ligatures:normal;font-variant-numeric:normal;font-variant-position:normal;isolation:auto;mix-blend-mode:normal;paint-order:stroke fill markers;shape-padding:0;text-decoration-line:none;text-decoration-style:solid;text-indent:0;text-orientation:mixed;text-transform:none;white-space:normal"/><path d="m5.55547 1.9423c.402243.23223.736121.56504.968351.96728l.916397-.52864c-.325092-.56309-.792372-1.03031-1.35545-1.35541z" color-rendering="auto" dominant-baseline="auto" image-rendering="auto" solid-style="font-feature-settings:normal;font-variant-alternates:normal;font-variant-caps:normal;font-variant-ligatures:normal;font-variant-numeric:normal;font-variant-position:normal;isolation:auto;mix-blend-mode:normal;paint-order:stroke fill markers;shape-padding:0;text-decoration-line:none;text-decoration-style:solid;text-indent:0;text-orientation:mixed;text-transform:none;white-space:normal"/></g></svg>
